<svg xmlns="http://www.w3.org/2000/svg" xmlns:xlink="http://www.w3.org/1999/xlink" viewBox="0,0,256,256" width="96px" height="96px" fill-rule="nonzero"><g fill="#752c23" fill-rule="nonzero" stroke="none" stroke-width="1" stroke-linecap="butt" stroke-linejoin="miter" stroke-miterlimit="10" stroke-dasharray="" stroke-dashoffset="0" font-family="none" font-weight="none" font-size="none" text-anchor="none" style="mix-blend-mode: normal"><g transform="scale(8,8)"><path d="M17.625,3c1.40234,3.30859 -5.02734,5.33594 -5.625,8.09375c-0.54687,2.53125 3.80859,5.5 3.8125,5.5c-0.66406,-1.04687 -1.14844,-1.92969 -1.8125,-3.5625c-1.125,-2.75781 6.85547,-5.24609 3.625,-10.03125zM21.875,7.59375c0,0 -5.62109,0.35547 -5.90625,4.03125c-0.12891,1.63672 1.48438,2.49609 1.53125,3.6875c0.03906,0.97266 -0.96875,1.78125 -0.96875,1.78125c0,0 1.80859,-0.32812 2.375,-1.8125c0.625,-1.64844 -1.21875,-2.77344 -1.03125,-4.09375c0.17969,-1.26172 4,-3.59375 4,-3.59375zM23.25,16.0625c-0.58984,-0.02734 -1.25391,0.19141 -1.84375,0.625c1.16406,-0.25781 2.15625,0.47266 2.15625,1.3125c0,1.88281 -2.6875,3.65625 -2.6875,3.65625c0,0 4.15625,-0.46484 4.15625,-3.5625c0,-1.27734 -0.80078,-1.98437 -1.78125,-2.03125zM12.21875,16.09375c-1.44922,0.05078 -4.34375,0.28906 -4.34375,1.40625c0,1.55469 6.74219,1.67578 11.5625,0.71875c0,0 1.3125,-0.91406 1.65625,-1.25c-3.16016,0.65625 -10.375,0.75781 -10.375,0.1875c0,-0.52344 2.3125,-1.0625 2.3125,-1.0625c0,0 -0.32812,-0.01562 -0.8125,0zM11.78125,18.96875c-0.79297,0 -1.96875,0.61719 -1.96875,1.21875c0,1.21094 5.96875,2.14063 10.375,0.375l-1.53125,-0.9375c-2.98828,0.97656 -8.50781,0.65234 -6.875,-0.65625zM12.53125,21.6875c-1.08203,0 -1.78125,0.68359 -1.78125,1.1875c0,1.55078 6.46484,1.70313 9.03125,0.125l-1.625,-1.0625c-1.91406,0.82422 -6.73047,0.94531 -5.625,-0.25zM8.90625,23.09375c-1.76562,-0.03516 -2.90625,0.76563 -2.90625,1.4375c0,3.57422 18.09375,3.40234 18.09375,-0.25c0,-0.60547 -0.71484,-0.89453 -0.96875,-1.03125c1.47656,3.49219 -14.78125,3.21875 -14.78125,1.15625c0,-0.46875 1.20313,-0.9375 2.3125,-0.71875l-0.9375,-0.53125c-0.27734,-0.04297 -0.55859,-0.05859 -0.8125,-0.0625zM26,25.5c-2.75,2.66016 -9.71094,3.61328 -16.71875,1.96875c7.00781,2.92969 16.68359,1.30078 16.71875,-1.96875z"></path></g></g></svg>