<?xml version="1.0" encoding="UTF-8"?>
<svg xmlns="http://www.w3.org/2000/svg" xmlns:xlink="http://www.w3.org/1999/xlink" width="96px" height="96px" viewBox="0 0 96 96" version="1.1">
<g id="surface1">
<path style=" stroke:none;fill-rule:evenodd;fill:rgb(45.882353%,17.254902%,13.72549%);fill-opacity:1;" d="M 62.101562 25.671875 C 60.148438 19.589844 57.015625 14.210938 52.601562 9.578125 C 51.484375 8.40625 50.246094 7.332031 49.46875 5.875 C 48.976562 4.953125 48.507812 4.019531 48.027344 3.089844 L 47.722656 2.324219 L 47.636719 2.625 C 47.597656 4.140625 46.738281 5.167969 45.671875 6.125 C 44.46875 7.207031 43.351562 8.375 42.195312 9.507812 L 38.644531 14.179688 L 35.769531 19.460938 L 33.851562 24.648438 L 33.792969 24.726562 C 32.734375 28.199219 32.214844 31.769531 31.960938 35.375 C 31.863281 36.730469 31.972656 38.105469 32.050781 39.464844 C 32.15625 41.414062 32.496094 43.324219 33.003906 45.210938 C 34.847656 52.054688 38.585938 57.730469 43.699219 62.554688 C 44.648438 63.453125 45.675781 64.265625 46.667969 65.121094 L 47.105469 66.625 L 47.515625 68.960938 L 47.710938 71.402344 C 47.707031 71.898438 47.6875 72.394531 47.714844 72.886719 C 47.722656 73.015625 47.890625 73.132812 47.980469 73.253906 L 48.808594 73.542969 L 49.671875 73.878906 L 49.523438 71.710938 L 49.515625 69.574219 L 49.816406 66.320312 L 50.03125 65.613281 L 50.648438 64.519531 C 51.414062 63.90625 52.230469 63.347656 52.925781 62.664062 C 54.183594 61.429688 55.441406 60.175781 56.566406 58.820312 C 58.027344 57.066406 59.28125 55.148438 60.292969 53.09375 C 60.964844 51.71875 61.601562 50.316406 62.128906 48.882812 C 62.59375 47.617188 62.878906 46.285156 63.246094 44.980469 L 63.339844 44.699219 C 64.09375 41.183594 64.222656 37.632812 63.945312 34.058594 C 63.722656 31.175781 63.042969 28.398438 62.101562 25.671875 Z M 47.175781 63.378906 C 47.292969 62.800781 47.4375 62.226562 47.539062 61.644531 C 47.4375 62.226562 47.292969 62.800781 47.175781 63.378906 Z M 49.738281 63.777344 L 49.253906 62.714844 L 49.738281 63.777344 L 50.453125 64.386719 Z M 79.855469 77.222656 C 79.234375 76.035156 78.328125 75.132812 77.125 74.542969 C 76.117188 74.046875 75.035156 73.828125 73.921875 73.796875 C 73.089844 73.773438 72.253906 73.816406 71.417969 73.828125 C 70.675781 73.835938 69.933594 73.847656 69.191406 73.84375 C 68.320312 73.832031 67.445312 73.808594 66.574219 73.78125 C 66.429688 73.777344 66.328125 73.808594 66.257812 73.953125 C 66.152344 74.183594 66.027344 74.402344 65.898438 74.652344 L 66.042969 74.699219 C 66.476562 74.777344 66.910156 74.84375 67.34375 74.929688 C 67.894531 75.039062 68.144531 75.355469 68.171875 75.824219 C 68.207031 76.488281 68.222656 77.152344 68.222656 77.820312 C 68.210938 80.457031 68.191406 83.089844 68.171875 85.726562 C 68.167969 85.898438 68.167969 86.082031 68.121094 86.246094 C 68.066406 86.433594 68.003906 86.679688 67.863281 86.769531 C 67.621094 86.933594 67.320312 87.042969 67.027344 87.089844 C 66.609375 87.160156 66.535156 87.179688 66.40625 87.589844 L 66.347656 87.796875 C 66.285156 88.023438 66.320312 88.070312 66.554688 88.070312 C 67.90625 88.085938 69.257812 88.117188 70.609375 88.109375 C 71.839844 88.105469 73.074219 88.179688 74.300781 87.949219 C 75.460938 87.730469 76.542969 87.347656 77.53125 86.703125 C 78.816406 85.859375 79.738281 84.738281 80.222656 83.269531 C 80.617188 82.085938 80.703125 80.878906 80.570312 79.640625 C 80.480469 78.785156 80.25 77.980469 79.855469 77.222656 Z M 77.488281 84.46875 C 76.765625 85.8125 75.6875 86.710938 74.144531 86.949219 C 73.179688 87.097656 72.214844 87.054688 71.292969 86.691406 C 70.710938 86.457031 70.492188 85.957031 70.476562 85.359375 C 70.457031 84.777344 70.453125 84.195312 70.449219 83.613281 C 70.449219 81.5625 70.449219 79.511719 70.449219 77.460938 C 70.453125 76.816406 70.464844 76.167969 70.472656 75.519531 C 70.480469 75.066406 70.578125 74.914062 71.019531 74.878906 C 72.964844 74.714844 74.824219 74.925781 76.367188 76.292969 C 77.320312 77.140625 77.863281 78.222656 78.089844 79.464844 C 78.183594 79.980469 78.210938 80.511719 78.269531 81.035156 C 78.222656 82.234375 78.0625 83.402344 77.488281 84.46875 Z M 93.828125 82.246094 C 93.445312 81.3125 92.71875 80.726562 91.804688 80.351562 C 91.492188 80.222656 91.171875 80.117188 90.832031 79.996094 L 90.949219 79.917969 C 91.316406 79.6875 91.71875 79.496094 92.035156 79.210938 C 92.796875 78.511719 93.113281 77.632812 92.964844 76.589844 C 92.820312 75.597656 92.328125 74.871094 91.441406 74.398438 C 90.640625 73.96875 89.773438 73.8125 88.878906 73.816406 C 87.328125 73.816406 85.78125 73.839844 84.230469 73.84375 C 83.695312 73.84375 83.164062 73.804688 82.628906 73.796875 C 82.523438 73.792969 82.371094 73.820312 82.328125 73.890625 C 82.203125 74.078125 82.125 74.292969 82.035156 74.503906 C 81.984375 74.625 82.035156 74.691406 82.175781 74.707031 C 82.546875 74.757812 82.917969 74.824219 83.292969 74.878906 C 83.808594 74.957031 84.058594 75.222656 84.089844 75.742188 L 84.097656 76.050781 C 84.097656 77.667969 84.101562 79.285156 84.097656 80.902344 C 84.085938 82.515625 84.070312 84.128906 84.050781 85.742188 C 84.046875 85.945312 84.019531 86.148438 83.992188 86.351562 C 83.945312 86.65625 83.785156 86.867188 83.472656 86.933594 L 82.589844 87.105469 C 82.484375 87.128906 82.335938 87.125 82.292969 87.1875 C 82.128906 87.429688 82 87.695312 82.015625 88.015625 L 82.109375 88.039062 L 85.074219 88.113281 L 85.667969 88.109375 C 86.691406 88.097656 87.722656 88.117188 88.746094 88.066406 C 89.855469 88.011719 90.894531 87.683594 91.859375 87.117188 C 92.882812 86.511719 93.671875 85.714844 93.953125 84.519531 C 94.132812 83.753906 94.132812 82.984375 93.828125 82.246094 Z M 86.296875 75.363281 C 86.300781 75.039062 86.445312 74.898438 86.765625 74.886719 C 87.5625 74.867188 88.351562 74.871094 89.117188 75.144531 C 90.109375 75.5 90.71875 76.355469 90.707031 77.398438 C 90.703125 77.800781 90.707031 78.195312 90.558594 78.582031 C 90.269531 79.339844 89.710938 79.742188 88.914062 79.820312 C 88.5 79.863281 88.082031 79.867188 87.714844 79.886719 L 86.484375 79.832031 C 86.320312 79.828125 86.25 79.753906 86.25 79.585938 Z M 91.402344 85.484375 C 91.003906 86.347656 90.28125 86.800781 89.375 86.957031 C 88.652344 87.082031 87.921875 87.046875 87.207031 86.863281 C 86.679688 86.726562 86.460938 86.300781 86.355469 85.828125 C 86.285156 85.511719 86.296875 85.136719 86.292969 84.808594 C 86.28125 84.300781 86.289062 83.25 86.289062 83.25 L 86.277344 83.25 C 86.277344 82.5 86.28125 81.851562 86.277344 81.132812 C 86.277344 80.976562 86.300781 80.898438 86.492188 80.90625 C 87.164062 80.925781 87.839844 80.9375 88.515625 80.960938 C 89.117188 80.984375 89.679688 81.164062 90.210938 81.449219 C 91.019531 81.886719 91.503906 82.550781 91.636719 83.464844 C 91.738281 84.160156 91.695312 84.84375 91.402344 85.484375 Z M 17.460938 86.292969 L 17.476562 82.214844 C 17.476562 81.601562 17.398438 81 17.199219 80.417969 C 16.644531 78.8125 15.117188 78.085938 13.523438 78.660156 C 12.800781 78.921875 12.152344 79.316406 11.53125 79.769531 C 11.171875 80.03125 11.171875 80.03125 10.910156 79.65625 C 10.171875 78.597656 9.117188 78.234375 7.886719 78.625 C 7.09375 78.878906 6.398438 79.308594 5.742188 79.808594 C 5.679688 79.855469 5.558594 79.90625 5.519531 79.878906 C 5.457031 79.835938 5.414062 79.726562 5.417969 79.644531 L 5.460938 78.917969 C 5.464844 78.765625 5.4375 78.613281 5.421875 78.453125 C 5.125 78.558594 4.886719 78.660156 4.640625 78.71875 C 3.871094 78.90625 3.101562 79.078125 2.328125 79.257812 C 2.140625 79.300781 1.945312 79.355469 1.925781 79.570312 C 1.90625 79.78125 2.109375 79.816406 2.269531 79.878906 C 2.597656 80.011719 2.929688 80.152344 3.257812 80.296875 C 3.53125 80.417969 3.632812 80.640625 3.632812 80.933594 C 3.628906 82.199219 3.636719 83.460938 3.628906 84.722656 C 3.625 85.238281 3.601562 85.75 3.578125 86.265625 C 3.558594 86.71875 3.402344 86.910156 2.960938 87.027344 C 2.726562 87.085938 2.488281 87.128906 2.253906 87.183594 C 2.203125 87.195312 2.113281 87.230469 2.113281 87.253906 C 2.101562 87.476562 2.089844 87.703125 2.128906 87.921875 C 2.136719 87.960938 2.371094 87.960938 2.503906 87.976562 L 2.589844 87.96875 C 3.5 87.957031 4.40625 87.941406 5.316406 87.933594 C 5.800781 87.929688 6.28125 87.933594 6.804688 87.933594 L 6.859375 87.203125 C 6.5625 87.148438 6.292969 87.109375 6.027344 87.050781 C 5.617188 86.960938 5.441406 86.742188 5.429688 86.328125 L 5.425781 85.734375 C 5.417969 84.191406 5.414062 82.648438 5.414062 81.105469 C 5.414062 80.878906 5.507812 80.703125 5.703125 80.570312 C 6.121094 80.285156 6.5625 80.0625 7.050781 79.9375 C 8.078125 79.675781 8.972656 80.039062 9.367188 80.914062 C 9.492188 81.191406 9.589844 81.496094 9.621094 81.796875 C 9.765625 83.34375 9.703125 84.890625 9.613281 86.4375 C 9.59375 86.769531 9.4375 86.9375 9.109375 87.019531 L 8.335938 87.183594 C 8.273438 87.199219 8.183594 87.160156 8.179688 87.210938 C 8.160156 87.421875 8.171875 87.75 8.171875 87.75 L 8.355469 87.75 L 10.710938 87.828125 C 11.355469 87.828125 12.003906 87.90625 12.648438 87.921875 C 12.765625 87.925781 12.867188 87.941406 12.875 87.808594 C 12.882812 87.597656 12.875 87.398438 12.867188 87.1875 L 12.742188 87.164062 L 12.078125 87.015625 C 11.632812 86.910156 11.476562 86.738281 11.476562 86.285156 C 11.46875 85.167969 11.484375 84.054688 11.476562 82.9375 C 11.46875 82.300781 11.445312 81.660156 11.402344 81.023438 C 11.390625 80.855469 11.417969 80.742188 11.554688 80.648438 C 11.953125 80.363281 12.382812 80.148438 12.851562 80.023438 C 14.304688 79.640625 15.492188 80.433594 15.566406 81.929688 C 15.640625 83.375 15.609375 84.824219 15.597656 86.269531 C 15.59375 86.773438 15.429688 86.925781 14.933594 87.058594 L 14.761719 87.101562 C 14.253906 87.226562 14.257812 87.226562 14.289062 87.765625 C 14.296875 87.933594 14.34375 87.976562 14.523438 87.972656 C 15.558594 87.949219 16.59375 87.941406 17.628906 87.933594 C 18.050781 87.929688 18.472656 87.933594 18.933594 87.933594 L 19.027344 87.230469 C 18.625 87.125 18.25 87.046875 17.890625 86.925781 C 17.574219 86.820312 17.460938 86.628906 17.460938 86.292969 Z M 53.078125 80.109375 C 53.503906 79.714844 53.507812 79.191406 53.386719 78.613281 C 53.050781 78.964844 52.671875 79.128906 52.242188 79.160156 C 51.664062 79.203125 51.09375 79.152344 50.558594 78.921875 C 49.101562 78.296875 47.667969 78.339844 46.238281 79.027344 C 45.035156 79.601562 44.296875 80.5 44.222656 81.859375 C 44.171875 82.734375 44.335938 83.558594 44.917969 84.253906 C 45.269531 84.667969 45.714844 84.9375 46.21875 85.125 C 46.4375 85.203125 46.453125 85.308594 46.273438 85.445312 C 46.136719 85.546875 45.996094 85.640625 45.855469 85.730469 C 45.550781 85.921875 45.242188 86.109375 44.933594 86.296875 C 44.753906 86.40625 44.691406 86.546875 44.75 86.757812 C 44.925781 87.386719 45.371094 87.75 45.929688 88.015625 L 46.132812 88.15625 L 45.953125 88.335938 C 45.40625 88.777344 44.839844 89.195312 44.316406 89.667969 C 43.875 90.0625 43.734375 90.589844 43.867188 91.175781 C 44.136719 92.34375 44.910156 93.0625 46.003906 93.394531 C 47.921875 93.976562 49.722656 93.644531 51.367188 92.507812 C 52.339844 91.832031 53.039062 90.953125 53.25 89.746094 C 53.488281 88.390625 52.734375 87.214844 51.382812 86.96875 C 50.492188 86.808594 49.578125 86.761719 48.675781 86.65625 C 48.253906 86.609375 47.828125 86.582031 47.417969 86.484375 C 47.066406 86.402344 46.894531 86.117188 46.925781 85.839844 C 46.960938 85.566406 47.25 85.3125 47.582031 85.285156 C 48.25 85.234375 48.90625 85.128906 49.523438 84.847656 C 51.15625 84.101562 51.914062 82.792969 51.722656 81.03125 C 51.699219 80.792969 51.644531 80.558594 51.597656 80.285156 C 52.121094 80.371094 52.65625 80.503906 53.078125 80.109375 Z M 48.121094 88.375 C 48.785156 88.394531 49.542969 88.433594 50.273438 88.648438 C 50.914062 88.835938 51.445312 89.164062 51.601562 89.882812 C 51.789062 90.75 51.371094 91.609375 50.53125 92.074219 C 49.746094 92.507812 48.890625 92.542969 48.027344 92.453125 C 47.285156 92.378906 46.621094 92.121094 46.085938 91.574219 C 45.382812 90.851562 45.378906 89.855469 46.082031 89.136719 C 46.710938 88.496094 47.046875 88.363281 48.121094 88.375 Z M 49.785156 83.152344 C 49.398438 84.390625 48.269531 84.5625 47.386719 84.164062 C 46.636719 83.828125 46.308594 83.164062 46.136719 82.410156 C 46.070312 82.117188 46.054688 81.816406 46.015625 81.515625 C 46.03125 81.089844 46.101562 80.679688 46.285156 80.296875 C 46.847656 79.113281 48.230469 79.183594 48.996094 79.71875 C 49.324219 79.949219 49.554688 80.261719 49.699219 80.632812 C 50.015625 81.460938 50.046875 82.304688 49.785156 83.152344 Z M 42.757812 87.097656 C 42.492188 87.054688 42.222656 87 41.964844 86.921875 C 41.507812 86.78125 41.453125 86.695312 41.445312 86.214844 C 41.433594 84.871094 41.425781 83.527344 41.410156 82.183594 C 41.402344 81.578125 41.332031 80.984375 41.144531 80.40625 C 40.65625 78.882812 39.164062 78.066406 37.671875 78.515625 C 36.84375 78.765625 36.132812 79.226562 35.46875 79.773438 L 35.226562 79.960938 L 35.226562 79.710938 C 35.242188 79.425781 35.273438 79.140625 35.273438 78.851562 C 35.269531 78.703125 35.214844 78.554688 35.1875 78.421875 C 34.621094 78.59375 34.117188 78.765625 33.597656 78.894531 C 33.082031 79.023438 32.550781 79.113281 32.027344 79.21875 C 31.765625 79.273438 31.574219 79.429688 31.582031 79.609375 C 31.585938 79.863281 31.796875 79.910156 31.980469 79.988281 C 32.3125 80.121094 32.640625 80.257812 32.96875 80.40625 C 33.203125 80.507812 33.296875 80.703125 33.296875 80.953125 C 33.28125 82.699219 33.269531 84.449219 33.242188 86.195312 C 33.234375 86.746094 33.097656 86.894531 32.554688 87.015625 L 32.316406 87.0625 C 31.8125 87.148438 31.800781 87.167969 31.835938 87.699219 L 31.835938 87.785156 C 31.832031 87.992188 31.921875 88.058594 32.128906 88.054688 C 33.464844 88.039062 34.800781 88.03125 36.136719 88.035156 C 36.707031 88.039062 36.769531 87.992188 36.757812 87.40625 L 36.730469 87.152344 C 36.402344 87.097656 36.089844 87.058594 35.785156 86.992188 C 35.464844 86.917969 35.351562 86.789062 35.320312 86.464844 C 35.292969 86.164062 35.285156 85.863281 35.28125 85.5625 C 35.265625 84.191406 35.253906 82.816406 35.246094 81.445312 C 35.246094 81.097656 35.308594 80.777344 35.628906 80.554688 C 36.109375 80.21875 36.636719 80.023438 37.222656 79.984375 C 38.410156 79.902344 39.316406 80.605469 39.382812 81.792969 C 39.460938 83.257812 39.4375 84.730469 39.457031 86.195312 C 39.457031 86.304688 39.4375 86.417969 39.421875 86.523438 C 39.394531 86.738281 39.289062 86.902344 39.070312 86.957031 C 38.859375 87.011719 38.644531 87.0625 38.429688 87.09375 C 38.105469 87.140625 38.097656 87.140625 38.074219 87.464844 L 38.082031 87.6875 C 38.121094 88.066406 38.121094 88.054688 38.503906 88.050781 C 39.796875 88.039062 41.085938 88.035156 42.378906 88.035156 C 42.917969 88.035156 42.957031 88.011719 42.960938 87.453125 L 42.957031 87.324219 C 42.964844 87.179688 42.902344 87.121094 42.757812 87.097656 Z M 60.796875 78.605469 C 59.441406 78.277344 58.15625 78.523438 56.9375 79.152344 C 55.753906 79.765625 54.960938 80.710938 54.660156 82.019531 C 54.355469 83.34375 54.5 84.632812 55.085938 85.859375 C 55.464844 86.65625 56.050781 87.273438 56.847656 87.675781 C 58.710938 88.613281 60.992188 88.1875 62.453125 86.933594 C 63.609375 85.941406 64.03125 84.621094 64.058594 82.988281 C 64.042969 82.824219 64.027344 82.511719 63.984375 82.199219 C 63.738281 80.421875 62.507812 79.023438 60.796875 78.605469 Z M 61.820312 85.472656 C 61.460938 86.886719 60.238281 87.515625 58.859375 87.03125 C 58.152344 86.78125 57.628906 86.308594 57.273438 85.667969 C 56.460938 84.199219 56.300781 82.636719 56.765625 81.03125 C 57.074219 79.964844 57.953125 79.378906 59 79.453125 C 59.933594 79.519531 60.652344 79.96875 61.179688 80.726562 C 61.734375 81.53125 61.949219 82.445312 62.007812 83.402344 C 62.015625 83.554688 62.007812 83.710938 62.007812 83.863281 L 62.074219 83.871094 C 61.992188 84.40625 61.953125 84.953125 61.820312 85.472656 Z M 26.746094 78.582031 C 25.324219 78.257812 23.988281 78.578125 22.753906 79.304688 C 21.683594 79.929688 20.992188 80.863281 20.730469 82.085938 C 20.480469 83.226562 20.582031 84.347656 20.988281 85.4375 C 21.234375 86.105469 21.605469 86.691406 22.152344 87.148438 C 23.304688 88.109375 24.648438 88.351562 26.082031 88.082031 C 27.292969 87.855469 28.359375 87.316406 29.132812 86.3125 C 29.855469 85.367188 30.132812 84.289062 30.160156 83.113281 C 30.117188 82.742188 30.105469 82.367188 30.027344 82.003906 C 29.636719 80.195312 28.578125 79 26.746094 78.582031 Z M 27.910156 85.46875 C 27.5625 86.875 26.320312 87.519531 24.949219 87.035156 C 24.070312 86.722656 23.496094 86.078125 23.132812 85.25 C 22.554688 83.925781 22.433594 82.542969 22.8125 81.144531 C 23.097656 80.074219 23.96875 79.285156 25.296875 79.472656 C 26.109375 79.589844 26.746094 80.007812 27.21875 80.667969 C 27.859375 81.5625 28.070312 82.585938 28.101562 83.660156 L 28.101562 83.878906 L 28.15625 83.886719 C 28.078125 84.414062 28.039062 84.953125 27.910156 85.46875 Z M 27.910156 85.46875 "/>
</g>
</svg>
